name rise44.9368peak50.754fall52.0217.mot
datacolumns 19
datarows 15
range 4.50165700000000 4.52498500000000
endheader
time	ground_force1_vx	ground_force1_vy	ground_force1_vz	ground_force1_px	ground_force1_py	ground_force1_pz	ground_force2_vx	ground_force2_vy	ground_force2_vz	ground_force2_px	ground_force2_py	ground_force2_pz	ground_torque1_x	ground_torque1_y	ground_torque1_z	ground_torque2_x	ground_torque2_y	ground_torque2_z	
4.50165700000000	62.85719100000000	762.86165900000003	57.13758200000000	0.37359200000000	0.00000000000000	0.08669200000000	0.00000000000000	0.00000000000000	0.00000000000000	0.00000000000000	0.00000000000000	0.00000000000000	0.00000000000000	31.14330400000000	0.00000000000000	0.00000000000000	0.00000000000000	0.00000000000000	
4.50331700000000	62.06290600000000	764.61988599999995	57.22409100000000	0.37197300000000	0.00000000000000	0.08671800000000	0.00000000000000	0.00000000000000	0.00000000000000	0.00000000000000	0.00000000000000	0.00000000000000	0.00000000000000	31.14867800000000	0.00000000000000	0.00000000000000	0.00000000000000	0.00000000000000	
4.50498600000000	61.27395400000000	766.28285000000005	57.30632000000000	0.37037500000000	0.00000000000000	0.08674400000000	0.00000000000000	0.00000000000000	0.00000000000000	0.00000000000000	0.00000000000000	0.00000000000000	0.00000000000000	31.15058800000000	0.00000000000000	0.00000000000000	0.00000000000000	0.00000000000000	
4.50665600000000	60.49105000000000	767.84955000000002	57.38422800000000	0.36879700000000	0.00000000000000	0.08677000000000	0.00000000000000	0.00000000000000	0.00000000000000	0.00000000000000	0.00000000000000	0.00000000000000	0.00000000000000	31.14910900000000	0.00000000000000	0.00000000000000	0.00000000000000	0.00000000000000	
4.50832200000000	59.71481400000000	769.31900499999995	57.45771700000000	0.36724200000000	0.00000000000000	0.08679500000000	0.00000000000000	0.00000000000000	0.00000000000000	0.00000000000000	0.00000000000000	0.00000000000000	0.00000000000000	31.14428000000000	0.00000000000000	0.00000000000000	0.00000000000000	0.00000000000000	
4.50998600000000	58.94577900000000	770.69027100000005	57.52663900000000	0.36571100000000	0.00000000000000	0.08682100000000	0.00000000000000	0.00000000000000	0.00000000000000	0.00000000000000	0.00000000000000	0.00000000000000	0.00000000000000	31.13610800000000	0.00000000000000	0.00000000000000	0.00000000000000	0.00000000000000	
4.51167000000000	58.18438700000000	771.96244999999999	57.59079400000000	0.36420400000000	0.00000000000000	0.08684600000000	0.00000000000000	0.00000000000000	0.00000000000000	0.00000000000000	0.00000000000000	0.00000000000000	0.00000000000000	31.12457100000000	0.00000000000000	0.00000000000000	0.00000000000000	0.00000000000000	
4.51332300000000	57.43099900000000	773.13471400000003	57.64993800000000	0.36272200000000	0.00000000000000	0.08687000000000	0.00000000000000	0.00000000000000	0.00000000000000	0.00000000000000	0.00000000000000	0.00000000000000	0.00000000000000	31.10961700000000	0.00000000000000	0.00000000000000	0.00000000000000	0.00000000000000	
4.51499000000000	56.68589400000000	774.20630900000003	57.70378700000000	0.36126600000000	0.00000000000000	0.08689300000000	0.00000000000000	0.00000000000000	0.00000000000000	0.00000000000000	0.00000000000000	0.00000000000000	0.00000000000000	31.09117000000000	0.00000000000000	0.00000000000000	0.00000000000000	0.00000000000000	
4.51666600000000	55.94927400000000	775.17657799999995	57.75202100000000	0.35983700000000	0.00000000000000	0.08691600000000	0.00000000000000	0.00000000000000	0.00000000000000	0.00000000000000	0.00000000000000	0.00000000000000	0.00000000000000	31.06913200000000	0.00000000000000	0.00000000000000	0.00000000000000	0.00000000000000	
4.51831600000000	55.22127100000000	776.04497000000003	57.79428700000000	0.35843600000000	0.00000000000000	0.08693700000000	0.00000000000000	0.00000000000000	0.00000000000000	0.00000000000000	0.00000000000000	0.00000000000000	0.00000000000000	31.04338500000000	0.00000000000000	0.00000000000000	0.00000000000000	0.00000000000000	
4.51998500000000	54.50194800000000	776.81105000000002	57.83020800000000	0.35706100000000	0.00000000000000	0.08695700000000	0.00000000000000	0.00000000000000	0.00000000000000	0.00000000000000	0.00000000000000	0.00000000000000	0.00000000000000	31.01379500000000	0.00000000000000	0.00000000000000	0.00000000000000	0.00000000000000	
4.52167200000000	53.79130500000000	777.47451599999999	57.85938400000000	0.35571400000000	0.00000000000000	0.08697600000000	0.00000000000000	0.00000000000000	0.00000000000000	0.00000000000000	0.00000000000000	0.00000000000000	0.00000000000000	30.98021200000000	0.00000000000000	0.00000000000000	0.00000000000000	0.00000000000000	
4.52331700000000	53.08928400000000	778.03520600000002	57.88139700000000	0.35439600000000	0.00000000000000	0.08699400000000	0.00000000000000	0.00000000000000	0.00000000000000	0.00000000000000	0.00000000000000	0.00000000000000	0.00000000000000	30.94247600000000	0.00000000000000	0.00000000000000	0.00000000000000	0.00000000000000	
4.52498500000000	52.39577500000000	778.49310800000001	57.89582100000000	0.35310500000000	0.00000000000000	0.08701000000000	0.00000000000000	0.00000000000000	0.00000000000000	0.00000000000000	0.00000000000000	0.00000000000000	0.00000000000000	30.90042000000000	0.00000000000000	0.00000000000000	0.00000000000000	0.00000000000000	
